<svg width="280" height="120" viewBox="0 0 280 120" fill="none" xmlns="http://www.w3.org/2000/svg">
<path d="M28.7893 83.173H59.7559V96.857H11V23.0643H28.7893V83.173Z" fill="#646569"/>
<path d="M126.504 61.4811C126.504 68.678 125.169 75.047 122.5 80.5882C119.831 86.1294 116.03 90.4036 111.097 93.4107C106.197 96.384 100.605 97.8707 94.3209 97.8707C88.0364 97.8707 82.4614 96.4347 77.5959 93.5627C72.7305 90.657 68.9293 86.518 66.1925 81.1457C63.4895 75.7734 62.0704 69.6071 61.9352 62.6468V58.4909C61.9352 51.2603 63.253 44.8913 65.8884 39.3839C68.5577 33.8427 72.3588 29.5685 77.2918 26.5614C82.2586 23.5542 87.9012 22.0507 94.2196 22.0507C100.47 22.0507 106.045 23.5373 110.945 26.5107C115.844 29.484 119.645 33.7244 122.348 39.2318C125.085 44.7055 126.47 50.99 126.504 58.0855V61.4811ZM108.41 58.3895C108.41 51.0576 107.177 45.4995 104.711 41.7152C102.278 37.8972 98.7809 35.9882 94.2196 35.9882C85.2996 35.9882 80.5861 42.6782 80.0793 56.0582L80.0286 61.4811C80.0286 68.7117 81.2281 74.2699 83.627 78.1555C86.026 82.0411 89.5906 83.9839 94.3209 83.9839C98.8147 83.9839 102.278 82.0748 104.711 78.2568C107.143 74.4388 108.377 68.9483 108.41 61.7852V58.3895Z" fill="#646569"/>
<path d="M196.09 87.7343C193.353 90.7752 189.349 93.2248 184.078 95.0832C178.808 96.9415 173.03 97.8707 166.745 97.8707C157.082 97.8707 149.361 94.9142 143.584 89.0014C137.806 83.0885 134.714 74.8611 134.309 64.3193L134.258 57.9334C134.258 50.669 135.542 44.3338 138.11 38.9277C140.678 33.4879 144.344 29.3151 149.108 26.4093C153.906 23.4698 159.447 22 165.732 22C174.922 22 182.051 24.1117 187.119 28.3352C192.221 32.5249 195.195 38.7926 196.039 47.1382H178.909C178.301 43.0161 176.983 40.0765 174.956 38.3195C172.928 36.5626 170.056 35.6841 166.34 35.6841C161.88 35.6841 158.433 37.5762 156.001 41.3605C153.568 45.1447 152.335 50.5508 152.301 57.5786V62.0386C152.301 69.4044 153.551 74.9456 156.051 78.6623C158.585 82.3452 162.556 84.1866 167.962 84.1866C172.591 84.1866 176.037 83.1561 178.301 81.095V69.6409H165.934V57.4266H196.09V87.7343Z" fill="#646569"/>
<path d="M268.92 61.4811C268.92 68.678 267.585 75.047 264.916 80.5882C262.247 86.1294 258.446 90.4036 253.512 93.4107C248.613 96.384 243.021 97.8707 236.737 97.8707C230.452 97.8707 224.877 96.4347 220.012 93.5627C215.146 90.657 211.345 86.518 208.608 81.1457C205.905 75.7734 204.486 69.6071 204.351 62.6468V58.4909C204.351 51.2603 205.669 44.8913 208.304 39.3839C210.974 33.8427 214.775 29.5685 219.708 26.5614C224.675 23.5542 230.317 22.0507 236.635 22.0507C242.886 22.0507 248.461 23.5373 253.36 26.5107C258.26 29.484 262.061 33.7244 264.764 39.2318C267.501 44.7055 268.886 50.99 268.92 58.0855V61.4811ZM250.826 58.3895C250.826 51.0576 249.593 45.4995 247.127 41.7152C244.694 37.8972 241.197 35.9882 236.635 35.9882C227.715 35.9882 223.002 42.6782 222.495 56.0582L222.445 61.4811C222.445 68.7117 223.644 74.2699 226.043 78.1555C228.442 82.0411 232.007 83.9839 236.737 83.9839C241.231 83.9839 244.694 82.0748 247.127 78.2568C249.559 74.4388 250.793 68.9483 250.826 61.7852V58.3895Z" fill="#646569"/>
</svg>
